<svg width="216" height="86" viewBox="0 0 216 86" fill="none" xmlns="http://www.w3.org/2000/svg">
<path d="M71.6313 27.875H81.1704C83.3891 27.875 85.2485 28.2656 86.7485 29.0469C88.2641 29.8281 89.4048 30.9844 90.1704 32.5156C90.9516 34.0312 91.3423 35.8984 91.3423 38.1172C91.3423 39.6797 91.0844 41.1094 90.5688 42.4062C90.0532 43.6875 89.3032 44.7812 88.3188 45.6875C87.3344 46.5781 86.1391 47.2422 84.7329 47.6797L83.561 48.1719H75.0532L75.0063 44.4922H81.1235C82.436 44.4922 83.5298 44.2109 84.4048 43.6484C85.2798 43.0703 85.936 42.2969 86.3735 41.3281C86.811 40.3594 87.0298 39.2891 87.0298 38.1172C87.0298 36.8047 86.8344 35.6562 86.4438 34.6719C86.0532 33.6875 85.4282 32.9297 84.5688 32.3984C83.7251 31.8516 82.5923 31.5781 81.1704 31.5781H75.9438V62H71.6313V27.875ZM88.0141 62L81.2173 46.5312L85.6938 46.5078L92.6313 61.7188V62H88.0141ZM115.459 58.3203V62H100.647V58.3203H115.459ZM101.42 27.875V62H97.1079V27.875H101.42ZM113.467 42.5469V46.2266H100.647V42.5469H113.467ZM115.225 27.875V31.5781H100.647V27.875H115.225ZM139.319 58.3203V62H124.506V58.3203H139.319ZM125.28 27.875V62H120.967V27.875H125.28ZM137.327 42.5469V46.2266H124.506V42.5469H137.327ZM139.084 27.875V31.5781H124.506V27.875H139.084ZM162.522 58.3203V62H148.366V58.3203H162.522ZM149.139 27.875V62H144.827V27.875H149.139ZM172.155 27.875V62H167.842V27.875H172.155ZM183.217 27.875L189.686 40.9531L196.108 27.875H201.124L192.241 44.7734L201.311 62H196.249L189.686 48.6641L183.1 62H178.014L187.108 44.7734L178.202 27.875H183.217Z" fill="#0CEB8B"/>
<rect x="13" y="27" width="48" height="35" rx="17.5" fill="#0CEB8B"/>
<path d="M49.1223 45.2465L31.0162 55.4529L31.2302 34.6694L49.1223 45.2465Z" fill="#13141B"/>
</svg>
